<svg xmlns="http://www.w3.org/2000/svg" width="433" height="347" viewBox="0 0 433 347" fill="none"><path d="M182.3 336.5H173V129.2C173 126.6 175.1 124.5 177.7 124.5C180.3 124.5 182.4 126.6 182.4 129.2V336.5H182.3Z" fill="#53D991"></path><path d="M162.3 336.5H153V157.2C153 154.6 155.1 152.5 157.7 152.5C160.3 152.5 162.4 154.6 162.4 157.2V336.5H162.3Z" fill="#002633"></path><path d="M142.3 336.5H133V174.5C133 171.9 135.1 169.8 137.7 169.8C140.3 169.8 142.4 171.9 142.4 174.5V336.5H142.3Z" fill="#53D991"></path><path d="M202.3 336.5H193V142.5C193 139.9 195.1 137.8 197.7 137.8C200.3 137.8 202.4 139.9 202.4 142.5V336.5H202.3Z" fill="#53D991"></path><path d="M150.3 288.5C150.3 288.5 151.3 258.5 155.3 219.5C159.3 180.5 195.3 165.5 222.8 143.9H276.3C297.3 155.5 340.3 168.5 356.3 198.5C372.3 228.5 368.3 335.5 368.3 335.5" stroke="#002633" stroke-miterlimit="10"></path><path d="M275.1 144.8V63H222.6V144.8L236.5 161.5L275.1 144.8Z" fill="white" stroke="#002633" stroke-miterlimit="10"></path><path d="M245.5 96.1001C245.5 96.1001 201.8 131.6 199.8 79.0001C198.1 32.2001 208.9 18.5001 252.3 19.2001C271.9 19.5001 278.5 37.8001 275.1 75.5001" fill="white"></path><path d="M245.5 96.1001C245.5 96.1001 201.8 131.6 199.8 79.0001C198.1 32.2001 208.9 18.5001 252.3 19.2001C271.9 19.5001 278.5 37.8001 275.1 75.5001" stroke="#002633" stroke-miterlimit="10"></path><path d="M211.7 55C210.6 64.1 205 68.9 211.2 71.7Z" fill="white"></path><path d="M211.7 55C210.6 64.1 205 68.9 211.2 71.7" stroke="#002633" stroke-miterlimit="10"></path><path d="M213.4 76.0001C213.4 76.0001 220.9 76.7001 225.1 72.1001" stroke="#002633" stroke-miterlimit="10"></path><path d="M233.9 58.4C235.391 58.4 236.6 57.1912 236.6 55.7C236.6 54.2088 235.391 53 233.9 53C232.409 53 231.2 54.2088 231.2 55.7C231.2 57.1912 232.409 58.4 233.9 58.4Z" fill="#002633"></path><path d="M231.5 58.8004C235.697 58.8004 239.1 56.92 239.1 54.6004C239.1 52.2808 235.697 50.4004 231.5 50.4004C227.303 50.4004 223.9 52.2808 223.9 54.6004C223.9 56.92 227.303 58.8004 231.5 58.8004Z" stroke="#002633" stroke-miterlimit="10"></path><path d="M274.6 59.2002C287.8 18.1002 271.9 23.4002 271.9 23.4002C268.9 12.7002 244.9 18.1002 244.9 18.1002C230.8 5.20018 230.1 18.9002 230.1 18.9002C204.2 -1.69981 206.5 24.6002 206.5 24.6002C206.5 24.6002 191.7 32.2002 202.7 42.1002L209.9 30.7002C209.9 30.7002 213.3 40.6002 225.1 36.8002C225.1 36.8002 235 47.1002 247.2 41.4002C247.2 41.4002 246.2 49.1002 263.9 57.4002C269.7 60.0002 274.6 59.2002 274.6 59.2002Z" fill="white" stroke="#002633" stroke-miterlimit="10"></path><path d="M258.8 55.7C258.8 55.7 265.2 45.2 274.1 45.5C283 45.8 285.3 67.6 272.6 72.9" fill="white"></path><path d="M258.8 55.7C258.8 55.7 265.2 45.2 274.1 45.5C283 45.8 285.3 67.6 272.6 72.9" stroke="#002633" stroke-miterlimit="10"></path><path d="M271.8 52C271.8 52 266.3 53.4 262.9 63.6" stroke="#002633" stroke-miterlimit="10"></path><path d="M222.7 118.6C222.7 118.6 233.2 122.3 242 108.2C250.6 94.5003 249.7 90.8004 239 100.3C230.7 107.7 222.3 107.2 222.3 107.2L222.7 118.6Z" fill="#002633"></path><path d="M207.2 58.4005C208.691 58.4005 209.9 57.1917 209.9 55.7005C209.9 54.2093 208.691 53.0005 207.2 53.0005C205.709 53.0005 204.5 54.2093 204.5 55.7005C204.5 57.1917 205.709 58.4005 207.2 58.4005Z" fill="#002633"></path><path d="M204.2 58.8004C208.397 58.8004 211.8 56.92 211.8 54.6004C211.8 52.2808 208.397 50.4004 204.2 50.4004C200.003 50.4004 196.6 52.2808 196.6 54.6004C196.6 56.92 200.003 58.8004 204.2 58.8004Z" stroke="#002633" stroke-miterlimit="10"></path><path d="M225.9 42.8001C225.9 42.8001 237.3 42.0001 240.4 47.4001" stroke="#002633" stroke-miterlimit="10"></path><path d="M210.7 42.8C210.7 42.8 206.6 42.5 202.6 43.5" stroke="#002633" stroke-miterlimit="10"></path><path d="M239.2 63.0001H224.7C220.7 63.0001 217.5 59.8001 217.5 55.8001C217.5 51.8001 220.7 48.6001 224.7 48.6001H239.2C243.2 48.6001 246.4 51.8001 246.4 55.8001C246.5 59.8001 243.2 63.0001 239.2 63.0001Z" stroke="#002633" stroke-miterlimit="10"></path><path d="M205 63.0001H202C198 63.0001 194.8 59.8001 194.8 55.8001C194.8 51.8001 198 48.6001 202 48.6001H205C209 48.6001 212.2 51.8001 212.2 55.8001C212.2 59.8001 209 63.0001 205 63.0001Z" stroke="#002633" stroke-miterlimit="10"></path><path d="M212.2 55.8003H217.5" stroke="#002633" stroke-miterlimit="10"></path><path d="M246.5 55.8003H259.4" stroke="#002633" stroke-miterlimit="10"></path><path d="M272.3 305.9C260.8 301.6 254.5 295.1 250.8 301.8C247.1 308.4 246 316.9 242.1 324C236.8 333.6 246.7 334.2 253 320.3C256.3 313.1 257.1 311.6 257.1 311.6C257.1 311.6 267.7 316.7 271.9 318.1" fill="white"></path><path d="M272.3 305.9C260.8 301.6 254.5 295.1 250.8 301.8C247.1 308.4 246 316.9 242.1 324C236.8 333.6 246.7 334.2 253 320.3C256.3 313.1 257.1 311.6 257.1 311.6C257.1 311.6 267.7 316.7 271.9 318.1" stroke="#002633" stroke-miterlimit="10"></path><path d="M286.3 308.5C275.6 302.5 270.3 295.2 265.6 301.2C260.9 307.2 258.6 315.4 253.6 321.9C246.9 330.6 257.6 333.2 264.9 319.9C269.5 311.5 274.9 311.9 274.9 311.9" fill="white"></path><path d="M286.3 308.5C275.6 302.5 270.3 295.2 265.6 301.2C260.9 307.2 258.6 315.4 253.6 321.9C246.9 330.6 257.6 333.2 264.9 319.9C269.5 311.5 274.9 311.9 274.9 311.9" stroke="#002633" stroke-miterlimit="10"></path><path d="M291 307.8C280.3 297.1 274.5 299.1 270.5 307.8C266.5 316.5 265.2 319.8 263.8 324.5C262.5 329.2 267 331.8 271.6 323.8" fill="white"></path><path d="M291 307.8C280.3 297.1 274.5 299.1 270.5 307.8C266.5 316.5 265.2 319.8 263.8 324.5C262.5 329.2 267 331.8 271.6 323.8" stroke="#002633" stroke-miterlimit="10"></path><path d="M290.7 321.2C287.7 316.5 286.7 312.5 286.7 312.5C286.7 312.5 282.4 319.2 277.9 324.8C273.3 330.6 267.7 331.8 271.7 321.8C275.3 312.9 279 305.1 285 304.5C293.3 303.6 295.4 306.6 304.3 316.8C313.1 326.8 318.3 330.5 329 336.5" fill="white"></path><path d="M290.7 321.2C287.7 316.5 286.7 312.5 286.7 312.5C286.7 312.5 282.4 319.2 277.9 324.8C273.3 330.6 267.7 331.8 271.7 321.8C275.3 312.9 279 305.1 285 304.5C293.3 303.6 295.4 306.6 304.3 316.8C313.1 326.8 318.3 330.5 329 336.5" stroke="#002633" stroke-miterlimit="10"></path><path d="M318.3 241.2V335.5" stroke="#002633" stroke-miterlimit="10"></path><path d="M217.7 151.2C217.7 151.2 225.9 207.9 285 148.5" stroke="#002633" stroke-miterlimit="10"></path><g style="mix-blend-mode:multiply"><path d="M32.5 223.1C54.2 198.9 85.7 183.7 120.7 183.7C186.1 183.7 239.1 236.7 239.1 302.1C239.1 314 237.3 325.5 234.1 336.3" fill="#3C67FF"></path></g><path d="M173 223.2V321.2" stroke="#002633" stroke-miterlimit="10"></path><path d="M33.5001 227.4C31.6001 223.8 34.2001 219.5 38.3001 219.5H168.8C176.6 219.5 183.7 223.8 187.3 230.7L237.3 326.6C239.2 330.2 236.6 334.5 232.5 334.5" stroke="white" stroke-miterlimit="10"></path><path d="M326.3 329H182.3V336H326.3V329Z" fill="white" stroke="#002633" stroke-miterlimit="10"></path><path d="M230.4 336.5H100C92.2001 336.5 85.1001 332.2 81.5001 325.3L31.5001 229.4C29.6001 225.8 32.2001 221.5 36.3001 221.5H166.8C174.6 221.5 181.7 225.8 185.3 232.7L235.3 328.6C237.1 332.2 234.5 336.5 230.4 336.5Z" fill="white" stroke="#002633" stroke-miterlimit="10"></path><path d="M236.5 161.5C251.7 157.8 249 161.8 255 177.2C271.7 163.2 284.8 148.5 284.8 148.5C284.8 148.5 280.1 137.2 274.8 135.8V140.5L236.5 161.5Z" fill="white" stroke="#002633" stroke-miterlimit="10" stroke-linejoin="round"></path><path d="M236.5 161.5C231 159.2 226.3 158.5 223 173.8C223 173.8 217 157.1 213.7 149.1C215.7 141.8 222.4 135.8 222.4 135.8L223.1 141.8C223 141.8 230.7 153.2 236.5 161.5Z" fill="white" stroke="#002633" stroke-miterlimit="10" stroke-linejoin="round"></path><path d="M236.5 161.5V175.3" stroke="#002633" stroke-miterlimit="10"></path><path d="M242.7 169.1C243.97 169.1 245 168.07 245 166.8C245 165.53 243.97 164.5 242.7 164.5C241.43 164.5 240.4 165.53 240.4 166.8C240.4 168.07 241.43 169.1 242.7 169.1Z" stroke="#002633" stroke-miterlimit="10"></path><path d="M253.7 244.5C261.432 244.5 267.7 238.232 267.7 230.5C267.7 222.768 261.432 216.5 253.7 216.5C245.968 216.5 239.7 222.768 239.7 230.5C239.7 238.232 245.968 244.5 253.7 244.5Z" fill="#3C67FF"></path><path d="M163.7 79.2003C167.4 79.2003 170.4 76.2006 170.4 72.5003C170.4 68.8 167.4 65.8003 163.7 65.8003C160 65.8003 157 68.8 157 72.5003C157 76.2006 160 79.2003 163.7 79.2003Z" fill="#3C67FF"></path><path d="M344.2 124.4C344.2 136.8 334.2 146.8 321.8 146.8C309.4 146.8 299.4 136.8 299.4 124.4C299.4 112 309.4 102 321.8 102V124.4H344.2Z" fill="#3C67FF"></path><path d="M151.7 141.8C156.118 141.8 159.7 138.219 159.7 133.8C159.7 129.382 156.118 125.8 151.7 125.8C147.282 125.8 143.7 129.382 143.7 133.8C143.7 138.219 147.282 141.8 151.7 141.8Z" fill="white" stroke="#002633" stroke-miterlimit="10"></path><path d="M295.3 7.80019C297.123 7.80019 298.6 6.32273 298.6 4.50019C298.6 2.67765 297.123 1.2002 295.3 1.2002C293.477 1.2002 292 2.67765 292 4.50019C292 6.32273 293.477 7.80019 295.3 7.80019Z" fill="white" stroke="#002633" stroke-miterlimit="10"></path><path d="M363.8 335.7H348.5C342.8 335.7 338.2 331.1 338.2 325.4V283.7H374.2V325.4C374.2 331 369.5 335.7 363.8 335.7Z" fill="white" stroke="#002633" stroke-miterlimit="10"></path><path d="M325.2 93.8003C340.2 93.8003 352.3 105.9 352.3 120.9H325.2V93.8003Z" fill="#53D991"></path><path d="M104.7 134.8H59.4001C56.5001 134.8 54.1001 132.4 54.1001 129.5C54.1001 126.6 56.5001 124.2 59.4001 124.2H104.7C107.6 124.2 110 126.6 110 129.5C110 132.4 107.6 134.8 104.7 134.8Z" fill="white" stroke="#002633" stroke-miterlimit="10"></path><path d="M43.3002 134.8H43.5002C40.6002 134.8 38.2002 132.4 38.2002 129.5C38.2002 126.6 40.6002 124.2 43.5002 124.2H43.3002C46.2002 124.2 48.6002 126.6 48.6002 129.5C48.7002 132.4 46.3002 134.8 43.3002 134.8Z" fill="#53D991"></path><path d="M59.3 144.8H109.7" stroke="#002633" stroke-miterlimit="10"></path><path d="M59.3 149.8H89.7001" stroke="#002633" stroke-miterlimit="10"></path><path d="M4.5 345.8C6.70914 345.8 8.5 344.009 8.5 341.8C8.5 339.591 6.70914 337.8 4.5 337.8C2.29086 337.8 0.5 339.591 0.5 341.8C0.5 344.009 2.29086 345.8 4.5 345.8Z" fill="white" stroke="#002633" stroke-miterlimit="10"></path><path d="M417 336.8H342.3V344.8H417V336.8Z" fill="#002633"></path><path d="M342.3 336.8H265V344.8H342.3V336.8Z" fill="#3C67FF"></path><path d="M265 336.8H234.3V344.8H265V336.8Z" fill="#58DAF9"></path><path d="M234.4 336.8H135.7V344.8H234.4V336.8Z" fill="#53D991"></path><path d="M135.7 336.8H101V344.8H135.7V336.8Z" fill="#F6804E"></path><path d="M101 336.8H86.3V344.8H101V336.8Z" fill="#FFD665"></path><path d="M86.3 336.8H14.3V344.8H86.3V336.8Z" fill="#3C67FF"></path><path d="M427.7 345.8C429.909 345.8 431.7 344.009 431.7 341.8C431.7 339.591 429.909 337.8 427.7 337.8C425.491 337.8 423.7 339.591 423.7 341.8C423.7 344.009 425.491 345.8 427.7 345.8Z" fill="white" stroke="#002633" stroke-miterlimit="10"></path></svg>